<?xml version="1.0" encoding="UTF-8"?>
<svg width="103px" height="103px" viewBox="0 0 103 103" version="1.1" xmlns="http://www.w3.org/2000/svg" xmlns:xlink="http://www.w3.org/1999/xlink">
    <!-- Generator: Sketch 50.2 (55047) - http://www.bohemiancoding.com/sketch -->
    <title>blue-gem</title>
    <desc>Created with Sketch.</desc>
    <defs></defs>
    <g id="Page-1" stroke="none" stroke-width="1" fill="none" fill-rule="evenodd">
        <g id="110679-ONZD3O-126" transform="translate(-47.000000, -283.000000)">
            <g id="blue-gem" transform="translate(47.000000, 283.000000)">
                <path d="M38.705,21.953 L63.75,21.953 L72.209,1.65 C70.936,1.123 69.58,0.797 68.449,0.797 L34.6,0.797 C33.471,0.797 32.115,1.121 30.844,1.65 L38.705,21.953" id="Fill-32" fill="#7AC6BE"></path>
                <path d="M22.26,39.447 L39.297,22.213 L30.844,1.65 C29.57,2.178 28.383,2.902 27.584,3.703 L3.645,27.639 C2.846,28.438 2.119,29.627 1.592,30.9 L22.26,39.447" id="Fill-33" fill="#4E9FCC"></path>
                <path d="M1.592,72.264 C2.119,73.529 2.842,74.717 3.641,75.518 L27.59,99.467 C28.389,100.262 29.574,100.986 30.844,101.514 L39.004,81.811 L21.295,64.102 L1.592,72.264" id="Fill-34" fill="#4D97C6"></path>
                <path d="M81.365,38.672 L81.168,64.688 L101.457,72.264 C101.982,70.994 102.311,69.637 102.311,68.506 L102.311,34.658 C102.311,33.527 101.984,32.172 101.457,30.898 L81.365,38.672" id="Fill-35" fill="#69C6E3"></path>
                <path d="M63.75,21.352 L81.756,39.061 L101.457,30.9 C100.93,29.629 100.205,28.438 99.404,27.639 L75.467,3.703 C74.668,2.904 73.479,2.178 72.209,1.65 L63.75,21.352" id="Fill-36" fill="#C0E3E3"></path>
                <path d="M0.74,34.645 L0.74,68.52 C0.742,69.646 1.068,70.996 1.594,72.264 L21.295,64.104 L21.295,39.059 L1.594,30.896 C1.068,32.166 0.742,33.516 0.74,34.645" id="Fill-37" fill="#7BCBE7"></path>
                <path d="M34.588,102.367 L68.461,102.367 C69.59,102.365 70.939,102.037 72.209,101.514 L63.555,80.805 L39.492,80.805 L30.842,101.514 C32.109,102.037 33.461,102.365 34.588,102.367" id="Fill-38" fill="#3882B0"></path>
                <path d="M81.156,63.855 L63.555,80.805 L72.209,101.514 C73.479,100.986 74.668,100.26 75.467,99.461 L99.404,75.523 C100.205,74.723 100.93,73.535 101.457,72.262 L81.156,63.855" id="Fill-39" fill="#6FC2BA"></path>
                <polyline id="Fill-40" fill="#98D2CE" points="39.004 81.811 21.295 64.104 21.295 39.061 39.004 21.352 64.045 21.352 81.754 39.061 81.754 64.104 64.045 81.811 39.004 81.811"></polyline>
                <polyline id="Fill-41" fill="#FFFFFE" points="34.035 76.842 81.754 42.344 81.754 39.061 73.973 31.279 24.348 67.154 34.035 76.842"></polyline>
                <polyline id="Fill-42" fill="#FFFFFE" points="81.754 57.375 81.754 50.955 39.07 81.811 47.951 81.811 81.754 57.375"></polyline>
                <path d="M24.459,27.742 C19.801,29.258 18.576,30.482 17.066,35.143 C15.555,30.484 14.328,29.262 9.666,27.748 C14.326,26.236 15.551,25.014 17.062,20.355 C18.574,25.014 19.799,26.236 24.459,27.742" id="Fill-43" fill="#FFFFFE"></path>
                <path d="M15.033,44.904 C12.504,45.727 11.84,46.393 11.02,48.922 C10.199,46.393 9.533,45.729 7.004,44.906 C9.533,44.088 10.197,43.424 11.018,40.895 C11.84,43.424 12.504,44.086 15.033,44.904" id="Fill-44" fill="#FFFFFE"></path>
                <path d="M91.74,74.039 C89.211,74.859 88.545,75.525 87.727,78.057 C86.904,75.525 86.238,74.861 83.709,74.041 C86.238,73.221 86.904,72.557 87.725,70.029 C88.545,72.557 89.209,73.219 91.74,74.039" id="Fill-45" fill="#FFFFFE"></path>
            </g>
        </g>
    </g>
</svg>