<?xml version="1.0" encoding="UTF-8"?>
<svg width="117px" height="94px" viewBox="0 0 117 94" version="1.1" xmlns="http://www.w3.org/2000/svg" xmlns:xlink="http://www.w3.org/1999/xlink">
    <!-- Generator: Sketch 50.2 (55047) - http://www.bohemiancoding.com/sketch -->
    <title>Group</title>
    <desc>Created with Sketch.</desc>
    <defs></defs>
    <g id="Page-1" stroke="none" stroke-width="1" fill="none" fill-rule="evenodd">
        <g id="110679-ONZD3O-126" transform="translate(-336.000000, -288.000000)">
            <g id="Group" transform="translate(336.000000, 288.000000)">
                <path d="M102.203,4.699 C100.949,2.129 97.58,0.025 94.719,0.025 L63.773,0.025 C60.912,0.025 56.228,0.025 53.367,0.025 L22.424,0.025 C19.563,0.025 16.193,2.129 14.939,4.699 L1.525,32.186 C0.27,34.758 0.912,38.502 2.949,40.51 L54.863,91.633 C56.902,93.641 60.238,93.641 62.277,91.633 L114.193,40.51 C116.232,38.502 116.873,34.758 115.617,32.186 L102.203,4.699" id="Fill-4" fill="#EBA2BE"></path>
                <polyline id="Fill-5" fill="#FEFAD8" points="34.535 53.033 26.611 42.07 67.973 12.166 76.261 22.867 34.535 53.033 119.134767 53.033"></polyline>
                <polyline id="Fill-6" fill="#FEFAD8" points="36.484 66.652 33.436 62.438 80.535 28.386 83.722 32.501 36.484 66.652"></polyline>
                <path d="M115.895,37.572 C116.439,35.781 116.389,33.764 115.617,32.186 L102.203,4.699 C101.588,3.438 100.459,2.291 99.133,1.447 L86.969,36.693 L115.895,37.572" id="Fill-7" fill="#E25F87"></path>
                <path d="M30.172,36.693 L58.57,0.025 C56.686,0.025 54.799,0.025 53.367,0.025 L22.424,0.025 C20.883,0.025 19.205,0.646 17.781,1.611 L30.172,36.693" id="Fill-8" fill="#E25F87"></path>
                <path d="M99.361,1.611 C97.936,0.644 96.26,0.025 94.719,0.025 L63.773,0.025 C62.342,0.025 60.457,0.025 58.57,0.025 L86.969,36.693 L99.361,1.611" id="Fill-9" fill="#E67BA1"></path>
                <path d="M17.934,1.5 C16.643,2.34 15.543,3.461 14.939,4.699 L1.525,32.186 C0.848,33.572 0.738,35.295 1.086,36.91 L30.531,37.685 L17.934,1.5" id="Fill-10" fill="#CE4D78"></path>
                <path d="M30.531,37.685 L1.086,36.91 C0.96,36.323 0.894,35.722 0.893,35.129 C0.893,34.088 1.094,33.068 1.525,32.186 L14.939,4.699 C15.543,3.461 16.643,2.34 17.934,1.5 L30.531,37.685" id="Fill-11" fill="#B44F7C"></path>
                <path d="M2.949,40.51 L54.863,91.633 C55.604,92.359 56.516,92.814 57.473,93.016 L30.172,36.693 L1.035,36.693 C1.311,38.152 1.961,39.537 2.949,40.51" id="Fill-12" fill="#DF5D97"></path>
                <path d="M59.67,93.016 C60.627,92.814 61.537,92.359 62.277,91.633 L114.193,40.51 C115.182,39.537 115.834,38.152 116.107,36.693 L86.969,36.693 L59.67,93.016" id="Fill-13" fill="#CE4D78"></path>
                <path d="M115.895,37.572 C115.98,37.284 116.052,36.99 116.107,36.693 C116.052,36.99 115.98,37.284 115.894,37.572" id="Fill-14" fill="#C45E8B"></path>
                <path d="M59.67,93.016 L86.969,36.693 L116.107,36.693 C116.052,36.99 115.98,37.284 115.894,37.572 C115.555,38.699 114.98,39.735 114.193,40.51 L62.277,91.633 C61.537,92.359 60.627,92.814 59.67,93.016" id="Fill-15" fill="#B44F7C"></path>
                <path d="M30.172,36.693 L57.473,93.016 C58.197,93.166 58.945,93.166 59.67,93.016 L86.969,36.693 L30.172,36.693" id="Fill-16" fill="#E575A3"></path>
                <path d="M32.104,20.195 C27.051,21.836 25.727,23.164 24.088,28.219 C22.449,23.168 21.119,21.84 16.064,20.201 C21.117,18.563 22.447,17.238 24.082,12.186 C25.725,17.238 27.051,18.561 32.104,20.195" id="Fill-17" fill="#FFFFFE"></path>
                <path d="M45.842,8.744 C43.098,9.635 42.379,10.357 41.49,13.098 C40.6,10.357 39.877,9.637 37.135,8.748 C39.877,7.857 40.598,7.139 41.486,4.396 C42.377,7.139 43.098,7.857 45.842,8.744" id="Fill-18" fill="#FFFFFE"></path>
                <path d="M47.912,59.488 C45.168,60.379 44.449,61.1 43.561,63.844 C42.67,61.104 41.947,60.381 39.205,59.49 C41.947,58.604 42.668,57.883 43.557,55.141 C44.447,57.883 45.168,58.602 47.912,59.488" id="Fill-19" fill="#FFFFFE"></path>
            </g>
        </g>
    </g>
</svg>