<?xml version="1.0" encoding="UTF-8"?>
<svg width="109px" height="109px" viewBox="0 0 109 109" version="1.1" xmlns="http://www.w3.org/2000/svg" xmlns:xlink="http://www.w3.org/1999/xlink">
    <!-- Generator: Sketch 50.2 (55047) - http://www.bohemiancoding.com/sketch -->
    <title>purple-gem</title>
    <desc>Created with Sketch.</desc>
    <defs></defs>
    <g id="Page-1" stroke="none" stroke-width="1" fill="none" fill-rule="evenodd">
        <g id="110679-ONZD3O-126" transform="translate(-194.000000, -99.000000)">
            <g id="purple-gem" transform="translate(194.000000, 99.000000)">
                <path d="M107.605,52.192 C108.875,53.463 108.875,55.527 107.605,56.799 L56.682,107.724 C55.409,108.997 53.344,108.997 52.075,107.725 L1.148,56.801 C-0.123,55.527 -0.123,53.465 1.148,52.192 L52.077,1.268 C53.346,-0.003 55.409,-0.004 56.682,1.268 L107.605,52.192" id="Fill-60" fill="#846FA4"></path>
                <path d="M76.965,21.551 L66.463,11.049 L18.164,45.965 L26.756,57.85 L76.965,21.551 Z M86.422,31.009 L28.869,72.617 L25.564,68.046 L82.383,26.969 L86.422,31.009 Z" id="Fill-61" fill="#E2ABC4"></path>
                <path d="M28.945,84.597 L52.075,107.725 C53.344,108.997 55.409,108.997 56.682,107.724 L89.369,75.034 L97.068,54.497 L14.439,54.497 L28.945,84.597" id="Fill-62" fill="#6B609A"></path>
                <path d="M52.661,0.811 C52.454,0.94 52.254,1.088 52.077,1.268 L1.148,52.192 C0.512,52.828 0.195,53.663 0.195,54.497 L35.309,54.497 L52.661,0.811" id="Fill-63" fill="#605292"></path>
                <path d="M73.443,54.497 L108.559,54.497 C108.559,53.663 108.24,52.828 107.605,52.192 L56.682,1.268 C56.5,1.087 56.299,0.938 56.092,0.81 L73.443,54.497" id="Fill-64" fill="#A479A9"></path>
                <path d="M52.075,107.725 C52.254,107.906 52.454,108.053 52.663,108.182 L35.309,54.497 L0.195,54.497 C0.195,55.33 0.512,56.164 1.148,56.801 L52.075,107.725" id="Fill-65" fill="#5D498C"></path>
                <path d="M73.443,54.497 L56.092,108.182 C56.301,108.053 56.5,107.905 56.682,107.724 L107.605,56.799 C108.24,56.164 108.559,55.33 108.559,54.497 L73.443,54.497" id="Fill-66" fill="#5B488B"></path>
                <path d="M35.309,26.412 C30.256,28.053 28.932,29.381 27.293,34.434 C25.654,29.385 24.324,28.057 19.271,26.417 C24.322,24.779 25.65,23.454 27.287,18.403 C28.928,23.454 30.256,24.778 35.309,26.412" id="Fill-67" fill="#FFFFFE"></path>
                <path d="M44.615,38.26 C41.873,39.151 41.152,39.871 40.264,42.615 C39.375,39.873 38.652,39.152 35.91,38.262 C38.65,37.373 39.373,36.653 40.262,33.912 C41.15,36.653 41.871,37.373 44.615,38.26" id="Fill-68" fill="#FFFFFE"></path>
            </g>
        </g>
    </g>
</svg>