<?xml version="1.0" encoding="UTF-8"?>
<svg width="121px" height="105px" viewBox="0 0 121 105" version="1.1" xmlns="http://www.w3.org/2000/svg" xmlns:xlink="http://www.w3.org/1999/xlink">
    <!-- Generator: Sketch 50.2 (55047) - http://www.bohemiancoding.com/sketch -->
    <title>Group 2</title>
    <desc>Created with Sketch.</desc>
    <defs></defs>
    <g id="Page-1" stroke="none" stroke-width="1" fill="none" fill-rule="evenodd">
        <g id="110679-ONZD3O-126" transform="translate(-188.000000, -282.000000)">
            <g id="Group-2" transform="translate(188.000000, 282.000000)">
                <path d="M3.908,104.668 C1.047,104.668 -0.125,102.641 1.307,100.162 L57.776,2.354 C59.208,-0.125 61.547,-0.125 62.979,2.354 L119.447,100.162 C120.877,102.641 119.707,104.668 116.846,104.668 L3.908,104.668" id="Fill-20" fill="#F6BB5B"></path>
                <path d="M1.307,100.162 L57.776,2.354 L1.307,100.162 M57.776,2.354 C58.491,1.113 59.434,0.494 60.377,0.494 C59.434,0.495 58.492,1.114 57.776,2.354" id="Fill-21" fill="#754A39"></path>
                <path d="M0.998,103.344 C0.525,102.527 0.592,101.4 1.307,100.162 L57.776,2.354 C58.492,1.114 59.434,0.495 60.377,0.495 L60.377,47.293 L31.147,85.936 L0.998,103.344" id="Fill-22" fill="#EE9D4A"></path>
                <path d="M3.906,104.668 C3.338,104.668 2.837,104.588 2.41,104.44 C2.838,104.588 3.34,104.668 3.908,104.668 L3.906,104.668 M2.406,104.439 C2.405,104.439 2.404,104.438 2.403,104.438 C2.404,104.438 2.405,104.439 2.406,104.439 M119.549,103.642 C119.55,103.64 119.551,103.639 119.552,103.638 C119.551,103.639 119.55,103.64 119.549,103.642 M119.554,103.635 C119.63,103.543 119.698,103.445 119.757,103.341 L119.758,103.342 C119.698,103.445 119.63,103.543 119.554,103.635" id="Fill-23" fill="#5E1F29"></path>
                <path d="M3.908,104.668 C3.34,104.668 2.838,104.588 2.41,104.44 C2.408,104.44 2.407,104.439 2.406,104.439 C2.405,104.439 2.404,104.438 2.403,104.438 C1.758,104.213 1.281,103.834 0.998,103.344 L31.144,85.939 L31.147,85.936 L41.525,79.943 L89.611,85.938 L119.758,103.342 C119.698,103.445 119.63,103.543 119.554,103.635 C119.554,103.636 119.553,103.637 119.552,103.638 C119.551,103.639 119.55,103.64 119.549,103.642 C119.022,104.279 118.104,104.663 116.867,104.666 L3.906,104.668" id="Fill-24" fill="#D57139"></path>
                <polyline id="Fill-25" fill="#D06431" points="0.998 103.344 31.147 85.936 31.144 85.939 0.998 103.344"></polyline>
                <polyline id="Fill-26" fill="#F5DF41" points="31.145 85.939 60.377 35.305 89.609 85.939 31.145 85.939"></polyline>
                <polyline id="Fill-27" fill="#FFFFFE" points="77.23 64.498 70.432 52.723 35.914 77.678 31.145 85.939 47.572 85.939 77.23 64.498"></polyline>
                <polyline id="Fill-28" fill="#FFFFFE" points="83.354 75.102 80.738 70.572 59.483 85.939 68.361 85.939 83.354 75.102"></polyline>
                <path d="M33.496,55.145 C28.838,56.66 27.613,57.885 26.104,62.545 C24.592,57.887 23.365,56.664 18.703,55.15 C23.363,53.639 24.59,52.418 26.1,47.758 C27.611,52.418 28.836,53.639 33.496,55.145" id="Fill-29" fill="#FFFFFE"></path>
                <path d="M39.174,68.168 C36.645,68.99 35.98,69.654 35.16,72.186 C34.34,69.656 33.674,68.992 31.145,68.17 C33.672,67.35 34.338,66.688 35.158,64.158 C35.979,66.688 36.645,67.35 39.174,68.168" id="Fill-30" fill="#FFFFFE"></path>
                <path d="M54.188,94.621 C51.658,95.441 50.994,96.107 50.174,98.637 C49.354,96.107 48.688,95.443 46.158,94.623 C48.688,93.803 49.352,93.139 50.172,90.609 C50.992,93.139 51.658,93.801 54.188,94.621" id="Fill-31" fill="#FFFFFE"></path>
            </g>
        </g>
    </g>
</svg>